<svg width="189" height="189" xmlns="http://www.w3.org/2000/svg" xmlns:xlink="http://www.w3.org/1999/xlink" overflow="hidden"><defs><clipPath id="clip0"><rect x="0" y="0" width="189" height="189"/></clipPath></defs><g clip-path="url(#clip0)"><path d="M141.439 79.7915C140.284 77.9332 137.842 77.3628 135.984 78.5173 135.467 78.8386 135.031 79.2745 134.71 79.7915L121.775 100.682 124.084 104.436 138.053 81.8842C138.058 81.875 138.071 81.8722 138.08 81.8779 138.082 81.8795 138.085 81.8817 138.086 81.8842L179.211 147.656 183.856 147.656Z" fill="#FFFFFF"/><path d="M74.8282 39.375C73.5001 39.3782 72.2521 40.0117 71.4656 41.0819L5.83341 147.656 10.458 147.656 40.2294 99.3116 62.5551 84.3491 74.8302 95.571 87.1251 84.3609 109.837 99.7172 139.496 147.656 144.126 147.656 78.1968 41.0819C77.4114 40.007 76.1595 39.3724 74.8282 39.375ZM86.7628 79.3524 74.8342 90.2318 62.9291 79.3564 45.2104 91.2378 74.6904 43.3558 74.6904 43.3558C74.73 43.3261 74.7786 43.3107 74.8282 43.3125 74.8832 43.3115 74.9367 43.3296 74.9798 43.3637L104.781 91.5469Z" fill="#FFFFFF"/></g></svg>