<svg width="189" height="189" xmlns="http://www.w3.org/2000/svg" xmlns:xlink="http://www.w3.org/1999/xlink" overflow="hidden"><defs><clipPath id="clip0"><rect x="0" y="0" width="189" height="189"/></clipPath></defs><g clip-path="url(#clip0)"><path d="M105.731 41.0646C114.432 41.0669 121.487 34.0155 121.489 25.3146 121.492 16.6137 114.44 9.55832 105.739 9.55592 97.0385 9.55354 89.9831 16.605 89.9807 25.3059 89.9807 25.3073 89.9807 25.3089 89.9807 25.3102 89.9799 34.0098 97.0312 41.063 105.731 41.0646ZM105.731 13.4934C112.257 13.491 117.55 18.7797 117.552 25.3059 117.554 31.8321 112.266 37.1247 105.739 37.1271 99.2132 37.1294 93.9206 31.8408 93.9182 25.3146 93.9182 25.3132 93.9182 25.3116 93.9182 25.3102 93.9245 18.7883 99.2089 13.5022 105.731 13.4934Z" fill="#FFFFFF"/><path d="M84.0016 138.987 87.0908 124.048 83.591 121.526 80.1315 138.265C79.9598 139.119 79.5794 139.916 79.024 140.586L52.2615 173.09C51.2155 174.45 49.591 175.238 47.8759 175.219 46.5867 175.231 45.3362 174.78 44.3518 173.948 43.204 173.007 42.4864 171.641 42.3634 170.162 42.2344 168.663 42.7022 167.173 43.6651 166.017L69.265 134.869C69.4691 134.622 69.6089 134.328 69.6725 134.013L73.6944 114.367C72.3951 113.383 71.2815 112.175 70.4066 110.799L65.9137 132.747 40.6257 163.516C37.2551 167.562 37.7878 173.571 41.8178 176.961 43.5104 178.392 45.6592 179.171 47.8759 179.156 50.778 179.178 53.5266 177.855 55.3203 175.573L82.0829 143.065C83.0503 141.886 83.7097 140.484 84.0016 138.987Z" fill="#FFFFFF"/><path d="M142.868 85.8907 124.031 79.671C121.614 74.0742 113.428 55.127 113.02 54.3135 109.993 48.7961 104.222 45.3427 97.9292 45.2812L97.2273 45.2812C88.9314 45.2812 82.533 51.547 80.5323 61.6177L72.3285 101.404C71.555 105.204 73.0806 109.104 76.2267 111.371L105.321 132.335 105.321 134.87 73.0678 173.965C72.3756 174.804 72.4943 176.045 73.3332 176.738 74.1721 177.43 75.4134 177.311 76.1056 176.472L105.322 141.059 105.322 169.543C105.298 174.851 109.581 179.173 114.889 179.197 120.196 179.221 124.518 174.938 124.542 169.63 124.542 169.601 124.542 169.572 124.542 169.543L124.542 127.505C124.557 125.055 123.627 122.692 121.945 120.91L135.969 103.911 136.831 104.199C137.787 104.47 138.774 104.616 139.767 104.633 143.867 104.574 147.502 101.984 148.897 98.128 150.604 93.0845 147.907 87.6108 142.868 85.8907ZM120.604 127.505 120.604 169.543C120.623 172.676 118.098 175.231 114.965 175.249 111.832 175.268 109.277 172.743 109.259 169.61 109.259 169.588 109.259 169.565 109.259 169.543L109.259 136.287 119.405 123.989C120.19 124.992 120.613 126.231 120.604 127.505ZM118.853 118.467 103.163 106.978 106.839 88.5977 108.013 91.3161C109.168 93.7279 111.222 95.5909 113.735 96.5054L131.963 102.578ZM104.662 73.8588C104.195 72.877 103.02 72.4598 102.039 72.927 101.098 73.3745 100.669 74.4774 101.059 75.4431L104.081 82.3111 99.0557 107.437C98.9051 108.189 99.2047 108.959 99.8235 109.412L116.345 121.509 109.017 130.391C108.879 130.131 108.683 129.906 108.444 129.732L78.5267 108.174C76.6395 106.814 75.7238 104.474 76.1869 102.195L84.3926 62.3985C85.6572 56.0267 89.6945 49.2188 97.2273 49.2188L97.9292 49.2188C102.762 49.2711 107.194 51.9148 109.536 56.1421 109.893 56.892 116.448 72.044 120.766 82.0435 120.989 82.5597 121.422 82.9558 121.956 83.1317L141.628 89.6262C144.582 90.644 146.167 93.8495 145.183 96.8149 144.355 99.1053 142.202 100.649 139.767 100.697 139.137 100.679 138.513 100.585 137.906 100.416L115.031 92.789C113.525 92.2204 112.292 91.0998 111.581 89.6551Z" fill="#FFFFFF"/><path d="M53.7207 101.89C54.7879 102.148 55.8818 102.278 56.9796 102.279 63.4934 102.256 69.1037 97.6809 70.4358 91.3047L76.8649 60.468C77.5087 57.3629 76.2298 54.1743 73.6188 52.3747 80.2801 48.7073 82.7072 40.3342 79.0398 33.6729 75.3724 27.0116 66.9993 24.5846 60.3381 28.252 53.6768 31.9193 51.2497 40.2924 54.9171 46.9537 55.0872 47.2628 55.2693 47.5652 55.4626 47.8603 55.6579 48.1588 55.8721 48.4399 56.0869 48.7197 52.9765 49.3278 50.5331 51.7401 49.8854 54.8425L43.5562 85.1947C41.933 92.5828 46.4121 99.94 53.7207 101.89ZM57.3544 38.2999C58.3043 33.7432 62.3149 30.4739 66.9694 30.4615 67.6516 30.4617 68.3318 30.5318 68.9996 30.671 74.3219 31.78 77.7375 36.9938 76.6285 42.3161 75.5195 47.6384 70.3056 51.054 64.9833 49.945L64.9794 49.945C59.6586 48.8343 56.2452 43.6212 57.3544 38.3003ZM47.4087 85.9981 53.738 55.6459C54.1178 53.8223 55.7231 52.514 57.5859 52.5103 57.8584 52.5101 58.1303 52.5379 58.3973 52.593L69.9597 55.0039C72.0874 55.4512 73.4527 57.5351 73.0129 59.6643L66.5831 90.5011C65.4731 95.8232 60.2591 99.2378 54.937 98.1278 54.8376 98.1071 54.7385 98.0849 54.6399 98.0611 49.3924 96.6198 46.2068 91.3057 47.4087 85.9981Z" fill="#FFFFFF"/><path d="M66.3863 43.1991C67.9798 43.535 69.5439 42.5154 69.8798 40.9218 69.8804 40.9189 69.881 40.9161 69.8816 40.9132L69.8816 40.9106C70.2102 39.3144 69.1866 37.7528 67.5917 37.4173 65.9901 37.1086 64.4417 38.1565 64.133 39.7579 63.8308 41.3252 64.8288 42.8491 66.3863 43.1985Z" fill="#FFFFFF"/></g></svg>