<svg width="189" height="189" xmlns="http://www.w3.org/2000/svg" xmlns:xlink="http://www.w3.org/1999/xlink" overflow="hidden"><defs><clipPath id="clip0"><rect x="0" y="0" width="189" height="189"/></clipPath></defs><g clip-path="url(#clip0)"><path d="M185.062 34.8469 185.062 28.9643 120.432 100.666 116.174 105.934 98.471 130.827C96.2679 133.781 96.5514 136.098 97.5457 137.767L87.4125 151.824C86.9888 152.502 86.7343 153.272 86.6703 154.068 65.1656 145.884 22.932 120.621 18.7031 109.726 18.4686 109.266 18.3925 108.74 18.4866 108.232 20.286 106.509 34.7169 105.127 44.2654 104.214 63.2894 102.395 71.2117 101.357 72.9717 98.4021 74.1608 96.4018 75.7969 93.6593 48.1163 74.025 34.0594 64.0395 16.8879 52.9732 7.19578 47.1988 6.26179 46.6421 5.05333 46.948 4.49662 47.882 3.93992 48.8159 4.24579 50.0244 5.17978 50.5811 28.4858 64.4687 66.15 90.4424 69.2567 96.5593 66.2917 98.1501 52.9161 99.4317 43.8874 100.3 24.8653 102.113 16.9411 103.151 15.181 106.116 14.3239 107.676 14.2675 109.553 15.0294 111.162 20.414 125.025 71.0167 153.687 89.9955 159.396 90.1802 159.447 90.3709 159.471 90.5625 159.469 90.6956 159.461 90.8277 159.439 90.9563 159.404 91.171 159.44 91.3882 159.462 91.6059 159.469 92.6025 159.46 93.5747 159.159 94.4016 158.602L107.872 148.837C109.401 149.767 111.713 150.176 114.733 147.956L140.372 130.036 145.762 125.88 185.062 91.1295 185.062 85.8729 143.266 122.85 142.447 123.482 122.874 103.911 123.425 103.229ZM92.1788 155.352C91.7737 155.631 91.2256 155.574 90.8873 155.216 90.543 154.92 90.4513 154.423 90.6668 154.023L100.19 140.833 104.991 146.052ZM139.301 125.898 138.053 126.86 112.439 144.744C110.47 146.195 109.88 145.542 109.386 145.012L108.478 144.028 102.54 137.572 102.582 137.517 101.4 136.336C100.69 135.625 100.288 134.983 101.656 133.151L119.306 108.313 120.381 106.982Z" fill="#FFFFFF"/></g></svg>