<svg width="96" height="96" xmlns="http://www.w3.org/2000/svg" xmlns:xlink="http://www.w3.org/1999/xlink" overflow="hidden"><defs><clipPath id="clip0"><rect x="592" y="312" width="96" height="96"/></clipPath></defs><g clip-path="url(#clip0)" transform="translate(-592 -312)"><path d="M608.5 370.5C604.9 366.9 604.9 361.1 608.5 357.5L607 356.1C602.6 360.5 602.6 367.6 607 371.9L608.5 370.5Z" fill="#FFFFFF"/><path d="M601.4 350.5C593.9 358 593.9 370.1 601.4 377.5L602.8 376.1C596.1 369.4 596.1 358.6 602.8 351.9L601.4 350.5Z" fill="#FFFFFF"/><path d="M671.5 357.5C675.1 361.1 675.1 366.9 671.5 370.5L672.9 371.9C677.3 367.5 677.3 360.4 672.9 356.1L671.5 357.5Z" fill="#FFFFFF"/><path d="M678.6 350.5 677.2 351.9C683.9 358.6 683.9 369.4 677.2 376.1L678.6 377.5C686 370.1 686 357.9 678.6 350.5Z" fill="#FFFFFF"/><path d="M640 347C639.4 347 639 347.4 639 348L639 363 624 363C623.4 363 623 363.4 623 364 623 364.6 623.4 365 624 365L640 365C640.6 365 641 364.6 641 364L641 348C641 347.4 640.5 347 640 347Z" fill="#FFFFFF"/><path d="M607.7 342.2 612.9 347.4 626.9 333.4 621.7 328.2C620.2 326.6 617.7 326.6 616.1 328.1L616.1 328.1 616 328.2 607.7 336.5C606.1 338 606.1 340.5 607.6 342.1L607.6 342.1 607.7 342.2ZM617.4 329.6 617.5 329.5C618.3 328.8 619.5 328.8 620.2 329.6L620.2 329.6 624 333.4 612.9 344.6 609.1 340.8 609 340.7C608.3 339.9 608.3 338.7 609.1 337.9 609.3 337.7 617.4 329.6 617.4 329.6Z" fill="#FFFFFF"/><path d="M672.3 342.2 672.4 342.1C673.9 340.5 673.9 338 672.3 336.5L672.3 336.5 664 328.2 663.9 328.1C662.3 326.6 659.8 326.6 658.3 328.2L658.3 328.2 653.1 333.4 667.1 347.4 672.3 342.2ZM659.7 329.6 659.7 329.6C660.5 328.8 661.7 328.8 662.5 329.5L662.6 329.6 670.9 337.9 670.9 337.9C671.7 338.6 671.7 339.9 671 340.6L670.9 340.7 667.1 344.5 655.9 333.4 659.7 329.6Z" fill="#FFFFFF"/><path d="M641 338 641 332 646 332C646.6 332 647 331.6 647 331 647 330.4 646.6 330 646 330L634 330C633.4 330 633 330.4 633 331 633 331.6 633.4 332 634 332L639 332 639 338C624.7 338.5 613.5 350.6 614 365 614.2 371.2 616.7 377.2 621 381.8L616.1 392.6C615.9 393.1 616.1 393.7 616.6 393.9L616.6 393.9C616.7 394 616.9 394 617 394 617.4 394 617.7 393.8 617.9 393.4L622.5 383.2C632.4 392.2 647.5 392.2 657.4 383.2L662 393.4C662.2 393.8 662.5 394 662.9 394 663 394 663.2 394 663.3 393.9 663.8 393.7 664 393.1 663.8 392.6L663.8 392.6 659 381.8C668.8 371.3 668.3 354.9 657.8 345.1 653.2 340.7 647.2 338.3 641 338ZM640 388C626.7 388 616 377.3 616 364 616 350.7 626.7 340 640 340 653.3 340 664 350.7 664 364 664 377.2 653.2 388 640 388Z" fill="#FFFFFF"/></g></svg>