<svg width="96" height="96" xmlns="http://www.w3.org/2000/svg" xmlns:xlink="http://www.w3.org/1999/xlink" overflow="hidden"><defs><clipPath id="clip0"><rect x="592" y="312" width="96" height="96"/></clipPath></defs><g clip-path="url(#clip0)" transform="translate(-592 -312)"><path d="M625 339.586 621.707 336.293 620.293 337.707 625 342.414 634.707 332.707 633.293 331.293 625 339.586Z" fill="#FFFFFF"/><path d="M641 337 660 337 660 339 641 339Z" fill="#FFFFFF"/><path d="M625 354.586 621.707 351.293 620.293 352.707 625 357.414 634.707 347.707 633.293 346.293 625 354.586Z" fill="#FFFFFF"/><path d="M641 352 660 352 660 354 641 354Z" fill="#FFFFFF"/><path d="M625 369.586 621.707 366.293 620.293 367.707 625 372.414 634.707 362.707 633.293 361.293 625 369.586Z" fill="#FFFFFF"/><path d="M641 367 660 367 660 369 641 369Z" fill="#FFFFFF"/><path d="M625 384.586 621.707 381.293 620.293 382.707 625 387.414 634.707 377.707 633.293 376.293 625 384.586Z" fill="#FFFFFF"/><path d="M641 382 660 382 660 384 641 384Z" fill="#FFFFFF"/><path d="M610 400 670 400 670 320 610 320ZM612 322 668 322 668 398 612 398Z" fill="#FFFFFF"/></g></svg>