<svg width="96" height="96" xmlns="http://www.w3.org/2000/svg" xmlns:xlink="http://www.w3.org/1999/xlink" overflow="hidden"><defs><clipPath id="clip0"><rect x="592" y="312" width="96" height="96"/></clipPath></defs><g clip-path="url(#clip0)" transform="translate(-592 -312)"><path d="M605.926 368.387C605.732 367.228 605.612 366.058 605.566 364.884L609.738 364.884C610.557 364.21 611.419 363.543 612.322 362.884L605.563 362.884C605.698 358.712 606.771 354.623 608.702 350.922L618.052 350.922C617.272 353.905 616.777 356.955 616.575 360.032 617.265 359.605 617.968 359.182 618.694 358.765 618.934 356.115 619.402 353.491 620.093 350.922L620.702 348.922C623.185 341.52 627.487 336.534 632.539 335.949L632.539 342.868 634.539 343.826 634.539 335.949C638.293 336.384 641.631 339.252 644.119 343.731L645.906 342.992C644.69 340.675 643.062 338.601 641.1 336.87L638.273 334.238C636.71 333.964 635.126 333.826 633.539 333.824 616.976 333.819 603.544 347.243 603.539 363.807 603.539 365.971 603.772 368.129 604.236 370.242 604.763 369.62 605.329 369.002 605.926 368.387ZM625.944 336.899C622.857 339.52 620.32 343.714 618.643 348.922L609.852 348.922C613.547 343.064 619.274 338.777 625.935 336.882 625.959 336.875 625.963 336.883 625.944 336.899Z" fill="#FFFFFF"/><path d="M641.343 390.709C641.32 390.716 641.315 390.709 641.333 390.693 644.33 388.063 646.795 383.942 648.436 378.847L649.027 376.847C650.044 372.939 650.584 368.922 650.637 364.884L650.637 362.884C650.607 361.212 650.482 359.592 650.309 358.007L648.389 358.801C648.516 360.133 648.612 361.487 648.638 362.884L648.638 364.884C648.587 368.925 648.032 372.944 646.986 376.847L634.539 376.847 634.539 371.091 632.539 371.4 632.539 376.847 620.093 376.847C619.333 374.039 618.838 371.166 618.614 368.266 617.967 368.708 617.346 369.151 616.752 369.594 616.998 372.042 617.432 374.467 618.052 376.847L609.294 376.847C608.738 377.607 608.241 378.409 607.809 379.246 610.612 383.903 614.621 387.716 619.412 390.281 607.566 392.187 604.983 389.265 604 386.178 601.322 377.776 611.987 366.494 629.935 358.742 630.445 358.53 630.686 357.944 630.473 357.434 630.261 356.925 629.675 356.684 629.165 356.896 629.158 356.9 629.15 356.903 629.143 356.906 609.915 365.21 599.045 377.218 602.094 386.786 603.409 390.912 606.807 392.88 612.884 392.88 614.918 392.859 616.948 392.69 618.957 392.374 619.899 392.261 620.794 391.896 621.545 391.316 624.919 392.793 628.538 393.632 632.218 393.791 633.094 393.916 633.984 393.916 634.86 393.791 645.603 393.319 655.272 387.132 660.203 377.576L656.993 379.069C653.334 384.693 647.783 388.822 641.343 390.709ZM609.948 378.847 618.643 378.847C620.283 383.942 622.749 388.062 625.745 390.693 625.764 390.709 625.759 390.716 625.735 390.709 619.211 388.801 613.599 384.592 609.939 378.863 609.934 378.854 609.938 378.847 609.948 378.847ZM632.539 378.847 632.539 391.818C627.487 391.233 623.185 386.249 620.702 378.847ZM646.377 378.847C643.894 386.249 639.591 391.233 634.539 391.818L634.539 378.847Z" fill="#FFFFFF"/><path d="M685.002 334.961C684.505 333.792 682.93 333.295 681.149 333.295 679.733 333.3 678.331 333.58 677.021 334.118L665.006 339.169 642.349 325.21 635.893 327.954 654.246 343.742 638.757 350.15 630.059 345.983 626.653 347.553 634.939 356.13 635.446 368.372 638.852 366.803 641.806 357.324 657.295 350.916 655.615 375.135 662.071 372.392 668.055 346.343 680.07 341.291C682.868 340.102 685.917 337.113 685.002 334.961ZM682.409 337.186C681.547 338.156 680.484 338.928 679.295 339.448L667.28 344.499 666.335 344.896 666.105 345.895 660.35 370.949 657.836 372.018 659.29 351.054 659.513 347.833 656.53 349.068 641.041 355.476 640.175 355.834 639.896 356.729 637.326 364.975C637.316 365.005 637.308 365.004 637.306 364.973L636.936 356.047 636.905 355.287 636.377 354.74 630.1 348.243C630.079 348.221 630.084 348.213 630.112 348.227L637.893 351.954 638.697 352.339 639.521 351.998 655.01 345.59 658.016 344.347 655.55 342.226 639.636 328.536 642.18 327.455 663.957 340.872 664.833 341.412 665.781 341.013 677.804 335.959C678.866 335.526 680.002 335.301 681.149 335.295 681.851 335.212 682.561 335.37 683.161 335.743 683.203 335.84 683.097 336.383 682.409 337.186Z" fill="#FFFFFF"/></g></svg>