<svg width="96" height="96" xmlns="http://www.w3.org/2000/svg" xmlns:xlink="http://www.w3.org/1999/xlink" overflow="hidden"><defs><clipPath id="clip0"><rect x="962" y="317" width="96" height="96"/></clipPath></defs><g clip-path="url(#clip0)" transform="translate(-962 -317)"><path d="M1023.07 386.75C1024.13 384.589 1026.63 379.75 1028.92 377.25 1030.78 375.156 1032.25 372.748 1033.26 370.138 1034.32 367.371 1034.91 364.444 1035 361.482L1035 360.622C1035 346.815 1023.81 335.622 1010 335.622 996.193 335.622 985 346.815 985 360.622L985 361.482C985.091 364.444 985.679 367.369 986.74 370.135 987.752 372.745 989.222 375.153 991.08 377.247 993.37 379.738 995.87 384.589 996.93 386.747 997.253 387.396 997.916 387.807 998.641 387.807L1021.36 387.807C1022.08 387.807 1022.75 387.398 1023.07 386.75ZM1021.3 385.81 998.7 385.81C997.41 383.186 994.925 378.47 992.579 375.919 990.879 374.006 989.535 371.805 988.61 369.419 987.632 366.872 987.087 364.178 987 361.451L987 360.659C986.99 347.957 997.279 337.651 1009.98 337.641 1022.68 337.63 1032.99 347.919 1033 360.622L1033 361.451C1032.92 364.176 1032.37 366.867 1031.4 369.412 1030.48 371.791 1029.14 373.987 1027.45 375.896 1025.07 378.5 1022.58 383.206 1021.3 385.81Z" fill="#FFFFFF"/><path d="M1022 394.867C1022 394.315 1021.55 393.867 1021 393.867L999 393.867C998.448 393.867 998 394.315 998 394.867 998 395.419 998.448 395.867 999 395.867L1021 395.867C1021.55 395.867 1022 395.419 1022 394.867Z" fill="#FFFFFF"/><path d="M1005.22 401.583C1004.67 401.581 1004.22 402.027 1004.22 402.58 1004.22 402.608 1004.22 402.637 1004.22 402.665 1004.47 405.855 1007.26 408.237 1010.45 407.985 1013.29 407.76 1015.55 405.505 1015.77 402.665 1015.82 402.115 1015.41 401.632 1014.86 401.588 1014.83 401.586 1014.8 401.585 1014.77 401.585ZM1010.01 406C1008.45 405.989 1007.05 405.033 1006.47 403.583L1013.53 403.583C1012.96 405.032 1011.56 405.988 1010.01 406Z" fill="#FFFFFF"/><path d="M1009 322 1009 331C1009 331.552 1009.45 332 1010 332 1010.55 332 1011 331.552 1011 331L1011 322C1011 321.448 1010.55 321 1010 321 1009.45 321 1009 321.448 1009 322Z" fill="#FFFFFF"/><path d="M981 361C981 360.448 980.552 360 980 360L971 360C970.448 360 970 360.448 970 361 970 361.552 970.448 362 971 362L980 362C980.552 362 981 361.552 981 361Z" fill="#FFFFFF"/><path d="M1039 361C1039 361.552 1039.45 362 1040 362L1049 362C1049.55 362 1050 361.552 1050 361 1050 360.448 1049.55 360 1049 360L1040 360C1039.45 360 1039 360.448 1039 361Z" fill="#FFFFFF"/><path d="M981.716 332.716C981.326 333.107 981.326 333.74 981.716 334.13L988.08 340.494C988.477 340.878 989.11 340.867 989.494 340.469 989.868 340.082 989.868 339.467 989.494 339.08L983.13 332.716C982.74 332.326 982.107 332.326 981.716 332.716Z" fill="#FFFFFF"/><path d="M1036.87 389.284C1037.27 389.668 1037.9 389.657 1038.28 389.259 1038.66 388.872 1038.66 388.258 1038.28 387.87L1031.92 381.506C1031.54 381.109 1030.9 381.098 1030.51 381.481 1030.11 381.865 1030.1 382.498 1030.48 382.895 1030.49 382.904 1030.5 382.912 1030.51 382.92Z" fill="#FFFFFF"/><path d="M1038.28 332.716C1037.89 332.326 1037.26 332.326 1036.87 332.716L1030.51 339.08C1030.11 339.464 1030.1 340.097 1030.48 340.494 1030.87 340.891 1031.5 340.902 1031.9 340.519 1031.9 340.51 1031.91 340.502 1031.92 340.494L1038.28 334.13C1038.67 333.74 1038.67 333.107 1038.28 332.716Z" fill="#FFFFFF"/><path d="M982.423 389.577C982.688 389.577 982.943 389.471 983.13 389.284L989.494 382.92C989.891 382.536 989.902 381.903 989.519 381.506 989.135 381.109 988.502 381.098 988.105 381.481 988.096 381.49 988.088 381.498 988.08 381.506L981.716 387.87C981.326 388.261 981.326 388.894 981.716 389.284 981.904 389.472 982.158 389.577 982.423 389.577Z" fill="#FFFFFF"/></g></svg>