<svg width="96" height="96" xmlns="http://www.w3.org/2000/svg" xmlns:xlink="http://www.w3.org/1999/xlink" overflow="hidden"><defs><clipPath id="clip0"><rect x="1016" y="348" width="96" height="96"/></clipPath></defs><g clip-path="url(#clip0)" transform="translate(-1016 -348)"><path d="M1081.13 428.135C1080.97 427.995 1080.81 427.857 1080.65 427.722 1077.04 424.822 1072.33 423.659 1067.79 424.543L1067.99 417.98C1067.93 415.531 1067.69 413.089 1067.27 410.675 1068.11 409.865 1069.11 409.233 1070.2 408.816 1073.15 413.614 1079.38 415.207 1084.27 412.416L1084.27 412.416C1092.29 408 1093.29 399.807 1093.29 390.622 1093.29 390.622 1085.16 392.872 1079.65 392.872 1079.46 392.872 1079.28 392.872 1079.09 392.864 1073.31 392.864 1068.63 397.548 1068.63 403.326L1068.63 403.871C1068.63 404.959 1068.86 406.035 1069.29 407.033 1068.44 407.403 1067.62 407.855 1066.85 408.385 1066.66 407.39 1066.45 406.412 1066.25 405.442 1065.02 399.553 1063.85 393.991 1065.14 385.874 1065.39 384.301 1065.76 382.748 1066.22 381.226 1067.57 380.37 1069.11 379.878 1070.71 379.8 1070.69 379.957 1070.66 380.11 1070.66 380.268L1070.66 380.684C1070.9 383.096 1072.76 385.028 1075.16 385.343L1075.16 385.343C1075.58 385.405 1076 385.437 1076.43 385.438 1080.25 385.438 1082.84 382.707 1085.35 379.405 1083.12 378.518 1081 377.376 1079.02 376 1078.12 375.311 1077.02 374.939 1075.89 374.939 1074.42 374.938 1073.01 375.555 1072.02 376.639 1071.72 376.994 1071.47 377.385 1071.27 377.803 1069.86 377.772 1068.46 378.021 1067.15 378.534 1068.64 374.698 1070.56 371.04 1072.86 367.626 1073.2 367.779 1073.56 367.904 1073.92 368.001 1074.33 368.116 1074.75 368.179 1075.18 368.19 1075.32 368.191 1075.46 368.181 1075.59 368.159 1078.09 367.729 1079.96 365.626 1080.09 363.094 1080.19 360.694 1080.56 358.314 1081.21 356 1076.62 356 1072.52 356.5 1070.31 360.51L1070.31 360.51C1069.86 361.298 1069.62 362.191 1069.62 363.099 1069.53 364.452 1070.07 365.772 1071.08 366.677 1069.73 368.687 1068.52 370.777 1067.43 372.935 1066.86 372.288 1066.25 371.686 1065.59 371.135 1065.77 370.725 1065.9 370.295 1065.97 369.853 1065.99 369.678 1066.01 369.502 1066.01 369.325 1066.01 366.44 1063.67 364.102 1060.79 364.1 1060.69 364.1 1060.6 364.1 1060.51 364.1 1058.2 363.969 1055.91 363.591 1053.69 362.975 1053.69 367.568 1054.19 371.662 1058.2 373.875L1058.2 373.875C1058.98 374.326 1059.88 374.563 1060.79 374.562 1062.22 374.566 1063.57 373.929 1064.48 372.825 1065.23 373.452 1065.89 374.162 1066.47 374.943 1065.68 376.689 1064.99 378.482 1064.42 380.312 1064.42 380.33 1064.4 380.347 1064.4 380.365 1063.86 382.066 1063.45 383.804 1063.16 385.565 1062.46 389.888 1062.4 394.292 1062.98 398.632 1061.54 398.308 1060.12 397.894 1058.73 397.393 1058.75 397.335 1058.78 397.281 1058.8 397.223L1059.14 396.323C1059.47 395.458 1059.65 394.542 1059.66 393.615 1059.66 387.837 1054.98 383.152 1049.2 383.15 1049.2 383.15 1049.2 383.15 1049.2 383.15 1049.02 383.155 1048.83 383.158 1048.64 383.158 1043.13 383.158 1035 380.908 1035 380.908 1035 390.093 1036 398.282 1044.02 402.708L1044.02 402.708C1046.77 404.276 1050.08 404.514 1053.03 403.355 1055.04 402.533 1056.73 401.078 1057.84 399.21 1059.62 399.867 1061.44 400.378 1063.3 400.738 1063.59 402.494 1063.94 404.182 1064.29 405.852 1065.25 409.827 1065.81 413.886 1065.98 417.97L1065.77 424.989C1064.03 425.447 1062.39 426.216 1060.92 427.261 1060.51 427.561 1060.11 427.884 1059.72 428.223 1057.75 427.409 1055.64 426.993 1053.51 427 1047.56 426.975 1042.09 430.261 1039.33 435.524 1039.05 436.002 1039.21 436.614 1039.69 436.89 1040.17 437.167 1040.78 437.003 1041.06 436.525 1041.07 436.509 1041.08 436.493 1041.08 436.476 1044.61 429.867 1052.68 427.158 1059.48 430.3L1060.09 430.59 1060.59 430.127C1061.07 429.681 1061.57 429.263 1062.1 428.876 1063.68 427.754 1065.49 426.991 1067.4 426.641L1067.82 426.556C1071.89 425.671 1076.13 426.667 1079.38 429.265 1079.6 429.449 1079.81 429.638 1080.03 429.833L1080.28 430.069 1080.62 430.097C1085 430.403 1088.95 432.796 1091.25 436.524 1091.52 437.009 1092.13 437.188 1092.61 436.924 1093.1 436.66 1093.27 436.053 1093.01 435.568 1092.99 435.536 1092.97 435.506 1092.95 435.476 1090.39 431.306 1086.01 428.586 1081.13 428.135ZM1070.63 403.872 1070.63 403.326C1070.63 398.665 1074.4 394.884 1079.06 394.864 1079.25 394.87 1079.45 394.872 1079.65 394.872 1083.56 394.716 1087.45 394.156 1091.26 393.2 1091.02 401.388 1089.49 406.944 1083.89 410.332L1083.28 410.681C1079.43 412.876 1074.54 411.722 1072.09 408.039 1072.4 407.913 1072.73 407.788 1073.05 407.662 1075.67 406.783 1078.16 405.547 1080.44 403.987 1080.88 403.649 1080.96 403.02 1080.62 402.582 1080.28 402.144 1079.65 402.062 1079.22 402.4 1077.09 403.841 1074.77 404.982 1072.33 405.792 1071.92 405.95 1071.53 406.104 1071.14 406.259 1070.81 405.506 1070.63 404.694 1070.63 403.872ZM1073.56 377.92C1074.18 377.294 1075.01 376.941 1075.89 376.939 1076.57 376.938 1077.24 377.161 1077.79 377.576 1079.15 378.591 1080.61 379.461 1082.15 380.171 1080.33 382.231 1078.59 383.442 1076.43 383.442 1076.2 383.442 1075.97 383.43 1075.75 383.406L1075.43 383.363C1074.87 383.289 1074.34 383.071 1073.9 382.732 1073.21 382.209 1072.77 381.43 1072.66 380.574L1072.66 380.274C1072.66 380.161 1072.68 380.051 1072.69 379.939 1073.31 380.036 1073.92 380.172 1074.51 380.346 1075.04 380.502 1075.6 380.199 1075.76 379.669 1075.91 379.139 1075.61 378.583 1075.08 378.427 1074.53 378.265 1073.99 378.142 1073.47 378.043 1073.5 378 1073.53 377.959 1073.56 377.92ZM1061.13 372.537C1061.02 372.55 1060.9 372.557 1060.79 372.557 1060.22 372.557 1059.67 372.411 1059.19 372.133L1058.91 371.977C1056.77 370.677 1055.99 368.565 1055.76 365.518 1057.32 365.859 1058.91 366.053 1060.5 366.099 1060.6 366.099 1060.7 366.099 1060.8 366.099 1062.58 366.115 1064.01 367.556 1064.01 369.33 1064.01 369.411 1064 369.492 1063.98 369.572 1063.97 369.687 1063.94 369.801 1063.91 369.913 1063.44 369.614 1062.96 369.357 1062.45 369.145 1061.92 368.986 1061.36 369.287 1061.2 369.816 1061.06 370.283 1061.28 370.784 1061.72 371 1062.12 371.169 1062.5 371.374 1062.87 371.611 1062.41 372.105 1061.8 372.431 1061.13 372.537ZM1052.3 401.487C1051.32 401.876 1050.27 402.075 1049.21 402.073 1047.74 402.073 1046.3 401.69 1045.02 400.964L1044.44 400.631C1038.81 397.245 1037.28 391.684 1037.04 383.483 1040.84 384.44 1044.73 385.001 1048.65 385.158 1048.85 385.158 1049.04 385.158 1049.23 385.15 1053.89 385.17 1057.66 388.948 1057.67 393.607 1057.65 394.298 1057.52 394.982 1057.27 395.627L1056.87 396.672C1054.19 395.569 1051.63 394.184 1049.24 392.542 1048.79 392.227 1048.16 392.34 1047.85 392.794 1047.53 393.249 1047.65 393.874 1048.1 394.189 1050.56 395.88 1053.18 397.312 1055.94 398.461 1055.06 399.816 1053.79 400.871 1052.3 401.487ZM1071.63 363.1C1071.63 362.539 1071.77 361.987 1072.05 361.5L1072.21 361.226C1073.51 359.086 1075.62 358.308 1078.67 358.079 1078.3 359.735 1078.11 361.425 1078.09 363.121 1077.93 364.653 1076.79 365.899 1075.27 366.188 1075.24 366.19 1075.21 366.19 1075.18 366.188 1074.92 366.177 1074.67 366.135 1074.42 366.063 1074.3 366.031 1074.17 365.982 1074.04 365.938 1074.57 365.216 1074.9 364.806 1074.91 364.786 1075.26 364.358 1075.2 363.728 1074.77 363.379 1074.34 363.03 1073.71 363.094 1073.36 363.522 1073.29 363.611 1072.86 364.151 1072.22 365.022 1071.8 364.473 1071.59 363.791 1071.63 363.1Z" fill="#FFFFFF"/></g></svg>