<svg width="96" height="96" xmlns="http://www.w3.org/2000/svg" xmlns:xlink="http://www.w3.org/1999/xlink" overflow="hidden"><defs><clipPath id="clip0"><rect x="1018" y="231" width="96" height="96"/></clipPath></defs><g clip-path="url(#clip0)" transform="translate(-1018 -231)"><path d="M1072.62 309.44C1072.62 313.096 1069.66 316.06 1066 316.06 1062.34 316.06 1059.38 313.096 1059.38 309.44 1059.38 305.784 1062.34 302.82 1066 302.82 1069.66 302.82 1072.62 305.784 1072.62 309.44Z" fill="#FFFFFF"/><path d="M1070 285.35 1070 298 1062 298 1062 277.68 1066 277.68C1074.84 277.68 1080.56 272.48 1080.56 264.44 1080.74 256.578 1074.51 250.059 1066.65 249.88 1066.43 249.875 1066.22 249.875 1066 249.88 1056.88 249.88 1051.44 255.88 1051.44 265L1043.5 265C1043.5 251.54 1052.5 241.94 1066 241.94 1078.29 241.807 1088.37 251.664 1088.5 263.957 1088.5 264.118 1088.5 264.279 1088.5 264.44 1088.5 275.63 1081.1 283.79 1070 285.35Z" fill="#FFFFFF"/></g></svg>