<svg width="96" height="96" xmlns="http://www.w3.org/2000/svg" xmlns:xlink="http://www.w3.org/1999/xlink" overflow="hidden"><defs><clipPath id="clip0"><rect x="592" y="312" width="96" height="96"/></clipPath></defs><g clip-path="url(#clip0)" transform="translate(-592 -312)"><path d="M680 399.68C679.006 399.532 678.035 399.261 677.107 398.875 673.506 397.455 669.499 397.455 665.898 398.875 662.756 400.122 659.256 400.122 656.114 398.875 654.343 398.129 652.435 397.766 650.514 397.81 648.591 397.766 646.681 398.129 644.909 398.875 643.363 399.533 641.694 399.852 640.015 399.81 638.334 399.852 636.663 399.533 635.115 398.875 633.343 398.129 631.432 397.766 629.51 397.81 627.589 397.766 625.681 398.129 623.91 398.875 622.365 399.533 620.696 399.852 619.017 399.81 617.336 399.852 615.665 399.533 614.117 398.875 612.343 398.129 610.432 397.766 608.508 397.81 606.584 397.766 604.673 398.129 602.9 398.875 601.97 399.262 600.996 399.532 600 399.68L600 401.7C601.241 401.547 602.455 401.227 603.609 400.746 605.157 400.088 606.828 399.769 608.509 399.811 610.19 399.769 611.861 400.088 613.409 400.746 615.183 401.492 617.094 401.855 619.018 401.811 620.939 401.855 622.847 401.492 624.618 400.746 626.163 400.088 627.832 399.769 629.511 399.811 631.192 399.768 632.863 400.087 634.411 400.746 636.184 401.492 638.095 401.855 640.018 401.811 641.941 401.855 643.851 401.492 645.624 400.746 648.766 399.499 652.266 399.499 655.408 400.746 659.009 402.166 663.015 402.166 666.616 400.746 669.758 399.499 673.258 399.499 676.401 400.746 677.552 401.226 678.763 401.547 680 401.7Z" fill="#FFFFFF"/><path d="M680 392.18C679.006 392.032 678.035 391.761 677.107 391.375 673.506 389.955 669.499 389.955 665.898 391.375 662.756 392.622 659.256 392.622 656.114 391.375 654.343 390.629 652.435 390.266 650.514 390.31 648.591 390.266 646.681 390.629 644.909 391.375 643.363 392.033 641.694 392.352 640.015 392.31 638.334 392.352 636.663 392.033 635.115 391.375 633.343 390.629 631.432 390.266 629.51 390.31 627.589 390.266 625.681 390.629 623.91 391.375 622.365 392.033 620.696 392.352 619.017 392.31 617.336 392.352 615.665 392.033 614.117 391.375 612.343 390.629 610.432 390.266 608.508 390.31 606.584 390.266 604.673 390.629 602.9 391.375 601.97 391.762 600.996 392.032 600 392.18L600 394.2C601.241 394.047 602.455 393.727 603.609 393.246 605.157 392.588 606.828 392.269 608.509 392.311 610.19 392.269 611.861 392.588 613.409 393.246 615.183 393.992 617.094 394.355 619.018 394.311 620.939 394.355 622.847 393.992 624.618 393.246 626.163 392.588 627.832 392.269 629.511 392.311 631.192 392.268 632.863 392.587 634.411 393.246 636.184 393.992 638.095 394.355 640.018 394.311 641.941 394.355 643.851 393.992 645.624 393.246 648.766 391.999 652.266 391.999 655.408 393.246 659.009 394.666 663.015 394.666 666.616 393.246 669.758 391.999 673.258 391.999 676.401 393.246 677.552 393.726 678.763 394.047 680 394.2Z" fill="#FFFFFF"/><path d="M680 384.68C679.006 384.532 678.035 384.261 677.107 383.875 673.506 382.455 669.499 382.455 665.898 383.875 662.756 385.122 659.256 385.122 656.114 383.875 654.343 383.129 652.435 382.766 650.514 382.81 648.591 382.766 646.681 383.129 644.909 383.875 643.363 384.533 641.694 384.852 640.015 384.81 638.334 384.852 636.663 384.533 635.115 383.875 633.343 383.129 631.432 382.766 629.51 382.81 627.589 382.766 625.681 383.129 623.91 383.875 622.365 384.533 620.696 384.852 619.017 384.81 617.336 384.852 615.665 384.533 614.117 383.875 612.343 383.129 610.432 382.766 608.508 382.81 606.584 382.766 604.673 383.129 602.9 383.875 601.97 384.262 600.996 384.532 600 384.68L600 386.7C601.241 386.547 602.455 386.227 603.609 385.746 605.157 385.088 606.828 384.769 608.509 384.811 610.19 384.769 611.861 385.088 613.409 385.746 615.183 386.492 617.094 386.855 619.018 386.811 620.939 386.855 622.847 386.492 624.618 385.746 626.163 385.088 627.832 384.769 629.511 384.811 631.192 384.768 632.863 385.087 634.411 385.746 636.184 386.492 638.095 386.855 640.018 386.811 641.941 386.855 643.851 386.492 645.624 385.746 648.766 384.499 652.266 384.499 655.408 385.746 659.009 387.166 663.015 387.166 666.616 385.746 669.758 384.499 673.258 384.499 676.401 385.746 677.552 386.226 678.763 386.547 680 386.7Z" fill="#FFFFFF"/><path d="M657.75 346.5 669.75 346.5 669.75 348.5 657.75 348.5Z" fill="#FFFFFF"/><path d="M610.25 346.5 622.25 346.5 622.25 348.5 610.25 348.5Z" fill="#FFFFFF"/><path d="M639 318 641 318 641 330 639 330Z" fill="#FFFFFF"/><path d="M639 365.5 641 365.5 641 377.5 639 377.5Z" fill="#FFFFFF"/><path d="M651.85 334.486 660.336 326 661.75 327.415 653.265 335.9Z" fill="#FFFFFF"/><path d="M618.25 368.036 626.735 359.551 628.15 360.965 619.664 369.45Z" fill="#FFFFFF"/><path d="M618.425 327.289 619.839 325.875 628.325 334.36 626.91 335.775Z" fill="#FFFFFF"/><path d="M651.976 360.789 653.39 359.375 661.875 367.86 660.461 369.274Z" fill="#FFFFFF"/><path d="M640 334.748C647.043 334.748 652.752 340.457 652.752 347.5 652.752 354.543 647.043 360.252 640 360.252 632.957 360.252 627.248 354.543 627.248 347.5 627.256 340.461 632.961 334.756 640 334.748M640 332.748C631.853 332.748 625.248 339.353 625.248 347.5 625.248 355.647 631.853 362.252 640 362.252 648.147 362.252 654.752 355.647 654.752 347.5 654.752 339.353 648.147 332.748 640 332.748Z" fill="#FFFFFF"/></g></svg>