<svg width="189" height="189" xmlns="http://www.w3.org/2000/svg" xmlns:xlink="http://www.w3.org/1999/xlink" overflow="hidden"><defs><clipPath id="clip0"><rect x="0" y="0" width="189" height="189"/></clipPath></defs><g clip-path="url(#clip0)"><path d="M123.279 105.761C131.761 108.805 139.787 112.274 146.432 117.71 149.615 120.193 151.508 123.978 151.584 128.014L155.041 156.352C155.32 158.494 154.379 160.612 152.602 161.839 149.215 164.028 145.573 165.795 141.757 167.101L141.757 171.252C146.353 169.776 150.737 167.71 154.8 165.106 157.803 163.056 159.406 159.497 158.951 155.889L155.519 127.831C155.393 122.664 152.963 117.824 148.893 114.638 141.751 108.795 133.271 105.155 124.352 101.968L114.661 97.9912C113.181 97.3882 112.214 95.9468 112.219 94.3482L112.219 88.5451C119.649 82.9862 124.027 74.2528 124.035 64.9735L124.035 59.2665C125.055 59.687 126.143 59.9148 127.246 59.9382 128.333 59.9382 129.215 59.0568 129.215 57.9694 129.215 57.758 129.181 57.5481 129.114 57.3475L127.12 51.3625C126.25 48.6307 125.554 45.8467 125.035 43.027 123.094 33.5081 116.833 25.4351 108.096 21.1861 106.695 20.4559 105.001 20.5807 103.722 21.5082L103.128 20.6268C102.322 19.3805 101.046 18.513 99.5906 18.2216 84.3513 15.3563 69.6559 25.0305 64.6484 40.3554 63.7905 43.028 63.352 45.8173 63.3491 48.6242L63.3307 51.5659C63.3168 54.319 62.7494 57.0414 61.6618 59.5706L57.9952 68.1306C57.5668 69.1299 58.0297 70.2873 59.029 70.7157 59.2741 70.8209 59.538 70.875 59.8045 70.875 59.9579 70.8752 60.1109 70.8571 60.2601 70.8213 60.5893 70.7425 62.4621 70.2897 65.3332 69.4744 66.5162 77.0756 70.6204 83.9142 76.7716 88.5337L76.7716 94.3482C76.7755 95.9466 75.8091 97.3876 74.3288 97.9904L64.573 101.995C55.6818 105.176 47.2329 108.807 40.1381 114.611 36.0519 117.799 33.6087 122.65 33.4792 127.831L30.0482 155.903C29.5986 159.508 31.2029 163.061 34.2041 165.107 38.2707 167.712 42.6583 169.779 47.2569 171.255L47.2569 167.104C43.4373 165.798 39.7916 164.03 36.401 161.839 34.627 160.616 33.6845 158.504 33.9584 156.366L37.3988 128.213 37.4131 128.016C37.4927 123.967 39.398 120.17 42.5975 117.686 49.214 112.272 57.2314 108.809 65.7106 105.766L69.8056 104.331C75.132 108.004 84.4403 110.257 94.5004 110.257 104.557 110.257 113.864 108.004 119.19 104.331ZM65.281 61.1226C66.5766 58.1108 67.2529 54.8691 67.2694 51.5903L67.2877 48.6496C67.2877 46.2495 67.6604 43.8639 68.3922 41.5782 72.2842 29.662 82.6855 21.6562 94.272 21.6562 95.8132 21.659 97.351 21.8047 98.8651 22.0917 99.2811 22.1955 99.6392 22.4591 99.8621 22.8253L101.618 25.4323C102.226 26.3342 103.449 26.573 104.351 25.9656 104.381 25.9454 104.411 25.9241 104.44 25.9023L106.025 24.7037C106.088 24.6499 106.175 24.6348 106.253 24.6643 113.963 28.3285 119.492 35.4156 121.171 43.7856L121.172 43.7856C121.722 46.7702 122.461 49.7166 123.384 52.6076L124.19 55.0262C120.024 52.6672 115.121 46.533 112.495 42.3474 112.154 41.8031 111.569 41.4593 110.927 41.4264 110.285 41.3892 109.665 41.6729 109.274 42.184 99.4246 54.8462 73.1253 63.1874 63.2055 65.9675ZM69.1594 68.3414C80.7377 64.7811 100.609 57.4507 110.635 46.6501 113.266 50.5465 116.454 54.0355 120.098 57.0057L120.098 64.9731C120.107 79.1004 108.661 90.5595 94.5337 90.5678 81.6964 90.5755 70.8421 81.0674 69.1594 68.341ZM94.5018 106.317C87.5159 106.489 80.5778 105.12 74.1811 102.307L75.8227 101.633C78.7827 100.426 80.7152 97.5449 80.7081 94.3484L80.7081 91.0448C89.3202 95.648 99.6593 95.659 108.281 91.0744L108.281 94.3486C108.274 97.5447 110.206 100.426 113.166 101.633L114.813 102.309C108.419 105.121 101.484 106.489 94.5018 106.317Z" fill="#FFFFFF"/><path d="M137.82 129.032C137.809 125.172 134.671 122.052 130.811 122.062 130.805 122.062 130.798 122.062 130.792 122.062L58.1648 122.062C54.3174 122.067 51.1995 125.185 51.1954 129.032L51.1954 173.624 37.4141 173.624 37.4141 178.101C37.4399 181.938 40.5462 185.041 44.3833 185.062L144.64 185.062C148.477 185.037 151.58 181.93 151.601 178.093L151.601 173.624 137.82 173.624ZM147.664 177.562 147.664 178.086C147.653 179.757 146.303 181.111 144.632 181.125L44.391 181.125C42.7195 181.115 41.3658 179.765 41.3512 178.093L41.3512 177.562 55.1325 177.562 55.1325 129.032C55.1345 127.358 56.4907 126.002 58.1644 126L130.851 126C132.524 126.002 133.881 127.358 133.882 129.032L133.882 177.562Z" fill="#FFFFFF"/><path d="M81.5378 141.809 70.4931 152.854 81.5378 163.898 84.3137 161.122 76.0646 152.854 84.3137 144.585 81.5378 141.809Z" fill="#FFFFFF"/><path d="M104.631 144.585 112.88 152.854 104.631 161.122 107.407 163.898 118.452 152.854 107.407 141.809 104.631 144.585Z" fill="#FFFFFF"/><path d="M88.0149 163.761 91.6571 165.277 100.871 142.99 97.2484 141.474 88.0149 163.761Z" fill="#FFFFFF"/></g></svg>