<svg width="189" height="189" xmlns="http://www.w3.org/2000/svg" xmlns:xlink="http://www.w3.org/1999/xlink" overflow="hidden"><defs><clipPath id="clip0"><rect x="0" y="0" width="189" height="189"/></clipPath></defs><g clip-path="url(#clip0)"><path d="M124.466 121.149C133.891 119.092 141.34 111.88 143.701 102.527L143.719 102.466C143.886 101.788 144.034 101.103 144.148 100.406L149.625 100.406C151.8 100.406 153.562 98.6434 153.562 96.4688L153.562 78.75C153.562 76.5753 151.8 74.8125 149.625 74.8125L144.996 74.8125C142.268 63.2748 131.967 55.1254 120.111 55.125L37.3629 55.125C25.5056 55.1248 15.2027 63.2738 12.472 74.8125L7.875 74.8125C5.70038 74.8125 3.9375 76.5753 3.9375 78.75L3.9375 96.4688C3.9375 98.6434 5.70038 100.406 7.875 100.406L13.3206 100.406C14.6804 110.598 22.2335 118.87 32.2599 121.149L46.1357 124.228C53.0267 125.795 60.125 122.626 63.5591 116.45L74.7042 96.6322C75.8396 94.6136 78.3964 93.8976 80.415 95.0329 81.0843 95.4094 81.6376 95.9626 82.0142 96.6322L93.1632 116.452C95.9675 121.495 101.285 124.622 107.055 124.622 108.241 124.62 109.425 124.488 110.583 124.228ZM149.625 96.4688 144.179 96.4688 145.542 78.75 149.625 78.75ZM7.875 96.4688 7.875 78.75 11.9582 78.75 13.3206 96.4688 7.875 96.4688ZM107.055 120.684C102.708 120.681 98.7037 118.322 96.5947 114.52L85.4438 94.6969C83.2452 90.7826 78.2897 89.3917 74.3754 91.5902 73.0743 92.321 71.9995 93.3957 71.2688 94.6969L60.1177 114.534C58.0053 118.329 54.0032 120.683 49.6598 120.684 48.7608 120.683 47.8648 120.582 46.9882 120.383L33.0967 117.3C25.4611 115.582 19.4797 109.65 17.6991 102.029L15.8287 77.7262 16.3032 75.7201C18.5883 65.9397 27.3231 59.032 37.3669 59.0625L120.109 59.0625C130.154 59.0286 138.891 65.9366 141.175 75.7181L141.673 77.8286 139.821 101.798C137.784 109.615 131.513 115.615 123.614 117.304L109.72 120.385C108.845 120.582 107.951 120.682 107.055 120.684Z" fill="#FFFFFF"/><path d="M165.387 153.562C165.387 162.261 158.335 169.312 149.637 169.312 140.938 169.312 133.887 162.261 133.887 153.562L133.887 151.698C139.915 148.714 143.729 142.57 143.731 135.844L108.293 135.844C108.294 142.57 112.109 148.714 118.137 151.698L118.137 153.562C118.137 170.96 132.24 185.062 149.637 185.062 167.034 185.062 181.137 170.96 181.137 153.562L181.137 55.3691 165.387 55.3691ZM112.798 139.781 139.226 139.781C138.14 143.445 135.57 146.487 132.139 148.17L129.949 149.255 129.949 149.269 122.074 149.269 122.074 149.255 119.885 148.17C116.454 146.487 113.884 143.445 112.798 139.781ZM169.324 59.3066 177.199 59.3066 177.199 153.562C177.199 168.785 164.859 181.125 149.637 181.125 134.414 181.125 122.074 168.785 122.074 153.562L122.074 153.206 129.949 153.206 129.949 153.562C129.949 164.436 138.764 173.25 149.637 173.25 160.51 173.25 169.324 164.436 169.324 153.562Z" fill="#FFFFFF"/><path d="M167.354 49.2188C171.703 49.2188 175.229 45.6929 175.229 41.3438 175.229 36.9946 171.703 33.4688 167.354 33.4688 163.004 33.4688 159.479 36.9946 159.479 41.3438 159.479 45.6929 163.004 49.2188 167.354 49.2188ZM167.354 37.4062C169.528 37.4062 171.291 39.1691 171.291 41.3438 171.291 43.5184 169.528 45.2812 167.354 45.2812 165.179 45.2812 163.416 43.5184 163.416 41.3438 163.416 39.1691 165.179 37.4062 167.354 37.4062Z" fill="#FFFFFF"/><path d="M151.604 31.5C157.04 31.5 161.447 27.0928 161.447 21.6562 161.447 16.2197 157.04 11.8125 151.604 11.8125 146.167 11.8125 141.76 16.2197 141.76 21.6562 141.76 27.0928 146.167 31.5 151.604 31.5ZM151.604 15.75C154.865 15.75 157.51 18.3943 157.51 21.6562 157.51 24.9183 154.865 27.5625 151.604 27.5625 148.342 27.5625 145.697 24.9183 145.697 21.6562 145.697 18.3943 148.342 15.75 151.604 15.75Z" fill="#FFFFFF"/><path d="M177.197 3.9375C172.848 3.9375 169.322 7.46326 169.322 11.8125 169.322 16.1617 172.848 19.6875 177.197 19.6875 181.547 19.6875 185.072 16.1617 185.072 11.8125 185.072 7.46326 181.547 3.9375 177.197 3.9375ZM177.197 15.75C175.023 15.75 173.26 13.9871 173.26 11.8125 173.26 9.63788 175.023 7.875 177.197 7.875 179.372 7.875 181.135 9.63788 181.135 11.8125 181.135 13.9871 179.372 15.75 177.197 15.75Z" fill="#FFFFFF"/><path d="M132.652 97.2228 133.834 81.776C133.861 81.423 133.875 81.0706 133.875 80.7188 133.875 73.1076 127.705 66.9375 120.094 66.9375L36.6188 66.9375C36.2703 66.9375 35.9238 66.9513 35.5773 66.9788 27.9885 67.559 22.3067 74.1813 22.8867 81.7701L24.068 97.2149C24.5066 103.276 28.8837 108.325 34.8213 109.618L48.697 112.701C50.5028 113.113 52.3634 112.283 53.2645 110.665L64.4096 90.848C68.7389 83.1433 78.4943 80.4069 86.199 84.7362 88.7583 86.1742 90.8726 88.2886 92.3108 90.848L103.458 110.665C104.192 111.989 105.586 112.81 107.1 112.809 107.41 112.809 107.719 112.774 108.021 112.705L121.905 109.622C127.839 108.326 132.212 103.28 132.652 97.2228ZM121.049 105.783 107.1 108.872C107.009 108.868 106.929 108.813 106.891 108.73L95.7423 88.9186C90.3422 79.3188 78.1824 75.9142 68.5824 81.3143 65.3991 83.1049 62.7687 85.7353 60.9781 88.9186L49.8232 108.752C49.7771 108.829 49.6897 108.871 49.6007 108.86L49.5515 108.86 35.66 105.773C31.4317 104.832 28.3179 101.234 27.9937 96.9137L26.8124 81.4688C26.4055 76.0491 30.4619 71.3225 35.8805 70.9026 36.1266 70.8848 36.3727 70.875 36.6188 70.875L120.094 70.875C125.528 70.8815 129.931 75.2848 129.938 80.7188 129.938 80.9707 129.938 81.2227 129.908 81.4767L128.727 96.9393C128.394 101.256 125.276 104.847 121.049 105.783Z" fill="#FFFFFF"/></g></svg>