<svg xmlns="http://www.w3.org/2000/svg" xml:space="preserve" style="enable-background:new 0 0 122.88 73.38" viewBox="0 0 122.88 73.38"><path d="M2.64 68.1h10.6c-.97-.25-1.7-1.14-1.7-2.19V2.26A2.27 2.27 0 0 1 13.8 0h94.67c1.25 0 2.26 1.02 2.26 2.26v63.65c0 1.05-.72 1.93-1.7 2.18h11.2c1.46 0 2.64 1.19 2.64 2.64 0 1.46-1.19 2.64-2.64 2.64H2.64C1.19 73.38 0 72.19 0 70.73c0-1.44 1.19-2.63 2.64-2.63zm82.4-30.44a.948.948 0 0 0-.74-.17c-.27.05-.48.19-.64.42l-.87 1.23c-.32-.13-.64-.24-.98-.33-.34-.09-.68-.16-1.02-.21l-.28-1.62a.93.93 0 0 0-.4-.64c-.22-.16-.47-.21-.74-.16l-2.03.35c-.26.05-.47.18-.63.4a.93.93 0 0 0-.17.74l.26 1.48c-.32.14-.64.3-.93.48-.3.18-.58.37-.83.57l-1.37-.95a.953.953 0 0 0-.73-.18c-.26.05-.48.19-.64.41l-1.17 1.67c-.16.23-.22.48-.17.74.05.27.18.48.41.64l1.23.87a8.056 8.056 0 0 0-.53 2l-1.62.28c-.27.05-.49.18-.64.4-.16.22-.21.47-.16.74l.35 2.06c.05.26.18.47.4.63.22.16.47.21.74.17l1.48-.26c.14.32.3.64.47.93.18.3.37.58.58.85l-.95 1.35c-.16.22-.22.46-.17.73.05.26.19.48.41.64l1.67 1.19c.23.15.47.2.74.15.26-.05.48-.18.64-.39l.87-1.25c.32.13.64.24.98.33.34.09.68.16 1.02.21l.28 1.62c.05.28.18.49.4.64.22.16.47.21.74.16l2.03-.36c.26-.04.47-.18.63-.4a.93.93 0 0 0 .17-.74l-.26-1.48c.33-.14.64-.3.93-.47.3-.18.58-.37.85-.58l1.35.95c.22.16.46.22.73.17.28-.05.49-.19.64-.41l1.19-1.67c.15-.23.2-.47.15-.74-.05-.26-.18-.48-.39-.64l-1.25-.87c.13-.32.24-.64.33-.98.09-.33.15-.68.21-1.02l1.62-.28c.27-.05.49-.18.64-.4s.21-.47.16-.74l-.35-2.03a.979.979 0 0 0-.4-.63.93.93 0 0 0-.74-.17l-1.48.26c-.14-.31-.29-.62-.47-.92-.18-.3-.37-.59-.58-.85l.95-1.37c.16-.22.22-.46.17-.73a.975.975 0 0 0-.41-.64l-1.68-1.18zm-5.89 4.78c.54-.09 1.07-.08 1.59.04.52.13.98.33 1.4.62.41.29.77.66 1.06 1.11.29.45.48.94.57 1.48.09.54.08 1.07-.04 1.59s-.33.98-.62 1.4c-.29.42-.66.77-1.11 1.06-.45.29-.94.48-1.48.57s-1.07.08-1.59-.04a4.13 4.13 0 0 1-1.4-.62c-.42-.29-.77-.66-1.06-1.11a4.15 4.15 0 0 1-.57-1.48c-.09-.54-.08-1.07.04-1.59s.33-.98.62-1.4c.29-.41.66-.77 1.11-1.06.45-.29.94-.48 1.48-.57zM63.57 18.37a.795.795 0 0 0-.23-.17c-.07-.03-.15-.04-.26-.04s-.19.01-.26.04-.15.08-.22.16l-.01.01-1.94 1.94c-.38.38-.98.42-1.41.13-.22-.14-.45-.28-.7-.41-.27-.15-.53-.28-.78-.39-.26-.12-.53-.23-.81-.34-.24-.09-.52-.19-.83-.3-.46-.15-.76-.59-.76-1.05v-2.98c0-.11-.02-.2-.05-.28a.585.585 0 0 0-.15-.21.685.685 0 0 0-.21-.15.778.778 0 0 0-.28-.05h-3.74a.594.594 0 0 0-.49.21c-.07.07-.12.14-.15.21-.03.07-.05.16-.05.27v2.73c0 .55-.39 1-.91 1.09-.29.07-.56.14-.8.21-.27.08-.54.18-.81.28-.26.1-.52.21-.79.34-.27.13-.52.25-.75.38-.44.24-.97.15-1.3-.18l-2.15-2.12c-.01-.01-.02-.02-.03-.02a.799.799 0 0 0-.2-.15.546.546 0 0 0-.24-.04c-.1 0-.18.01-.25.04-.08.04-.16.09-.24.17l-2.61 2.62c-.08.09-.14.16-.17.23s-.04.15-.04.26c0 .11.01.19.04.26a.8.8 0 0 0 .16.23l.01.01 1.94 1.94c.38.38.42.98.13 1.41-.14.22-.28.45-.41.7-.15.27-.28.53-.39.78-.12.27-.23.54-.34.81-.09.24-.19.52-.3.83a1.1 1.1 0 0 1-1.05.76h-2.98a.61.61 0 0 0-.49.2c-.07.06-.11.14-.14.21-.03.08-.05.17-.05.28v3.74c0 .1.02.18.04.25.03.08.09.16.17.24.06.07.13.11.2.14.07.03.16.05.27.05h2.73c.54 0 1 .4 1.09.91.07.29.14.56.21.8.09.28.18.55.28.82.1.26.21.53.34.81.13.29.26.56.38.79.23.44.13.96-.2 1.29l-2.12 2.12-.02.02a.546.546 0 0 0-.19.45c0 .1.02.18.05.25.03.09.09.17.17.25l2.59 2.62c.08.07.15.12.23.15a.821.821 0 0 0 .57 0c.08-.03.15-.08.22-.14L44 42.8c.38-.39.98-.44 1.42-.14.22.14.45.28.7.41.27.15.53.28.78.39.26.12.54.23.81.34.24.09.52.19.84.3.46.15.76.59.76 1.05v2.98c0 .11.02.2.05.28.03.08.08.15.15.21.13.13.29.2.49.2h3.74c.1 0 .18-.02.25-.04a.71.71 0 0 0 .24-.17.642.642 0 0 0 .19-.48V45.4c0-.55.39-1 .91-1.09.29-.07.56-.14.8-.21.27-.08.54-.18.81-.28.26-.1.53-.21.81-.34.29-.13.55-.26.79-.38.44-.23.96-.13 1.29.2l2.11 2.12.02.02c.07.07.14.13.2.15.06.03.14.04.25.04.1 0 .19-.02.26-.04.07-.03.14-.08.2-.15l.04-.04 2.61-2.58c.07-.08.12-.15.15-.23.03-.08.05-.17.05-.28s-.02-.2-.05-.29a.744.744 0 0 0-.14-.22l-1.95-1.92c-.39-.38-.44-.98-.14-1.41.14-.22.28-.45.41-.7.14-.27.27-.53.39-.78.12-.26.23-.53.34-.81.09-.24.19-.52.29-.83a1.1 1.1 0 0 1 1.05-.76h2.98c.11 0 .2-.01.28-.05.08-.03.15-.08.21-.14.13-.13.2-.29.2-.49v-3.74c0-.1-.01-.18-.04-.25a.71.71 0 0 0-.17-.24.642.642 0 0 0-.48-.19h-2.73c-.55 0-1.01-.4-1.09-.93-.06-.25-.13-.5-.21-.75-.08-.26-.17-.53-.29-.83-.01-.02-.01-.04-.02-.06a8.9 8.9 0 0 0-.32-.75c-.12-.26-.24-.51-.37-.75-.24-.44-.15-.97.18-1.3l2.12-2.15c.01-.01.02-.02.03-.02.07-.07.12-.14.15-.2s.04-.14.04-.24c0-.1-.01-.18-.04-.25a.886.886 0 0 0-.17-.24l-2.61-2.65zm.62-2.21c.35.15.67.36.95.64l2.62 2.61.01.01c.28.28.49.59.63.93.15.35.23.72.23 1.12 0 .4-.08.77-.23 1.12-.15.35-.37.65-.65.92l-1.54 1.56c.02.05.05.1.07.15.13.3.26.59.37.89.01.02.01.03.02.05.12.3.23.62.33.96l.03.12h1.88c.4 0 .77.07 1.12.22.34.15.65.36.93.63l.02.02c.27.28.47.59.62.93.15.35.22.71.22 1.09v3.74c0 .81-.28 1.49-.85 2.06-.28.28-.6.5-.95.64s-.71.21-1.11.21h-2.2c-.02.06-.04.12-.07.18-.12.31-.25.62-.4.93-.15.33-.3.63-.45.91-.02.03-.04.07-.05.1l1.33 1.32c.02.01.03.03.05.04a2.896 2.896 0 0 1 .82 2.03c0 .38-.07.74-.21 1.09-.13.34-.33.66-.6.94l-.03.03-2.63 2.6c-.27.29-.58.5-.93.65-.35.15-.73.22-1.13.22-.4 0-.77-.08-1.13-.23-.35-.15-.66-.37-.93-.66l-1.54-1.54c-.06.03-.11.05-.16.07-.29.13-.59.26-.93.38-.31.12-.63.23-.97.34-.05.01-.09.03-.14.04v1.88c0 .39-.07.77-.22 1.12-.14.35-.35.65-.63.93l-.02.02c-.28.27-.59.47-.93.62-.35.14-.71.22-1.09.22h-3.74c-.81 0-1.49-.28-2.06-.85-.28-.28-.5-.6-.64-.95a2.96 2.96 0 0 1-.21-1.11v-2.2c-.06-.02-.12-.04-.18-.07a12.4 12.4 0 0 1-.93-.4c-.32-.15-.63-.3-.91-.45-.03-.02-.07-.03-.1-.05l-1.31 1.34-.04.04c-.28.27-.6.47-.94.61-.35.14-.71.2-1.1.2-.38 0-.74-.07-1.09-.2-.35-.13-.66-.33-.94-.6a.138.138 0 0 1-.03-.04l-2.62-2.65a2.84 2.84 0 0 1-.63-.93c-.15-.35-.23-.72-.23-1.12 0-.4.08-.77.23-1.12.15-.35.37-.65.65-.92L38.44 38c-.03-.05-.05-.11-.08-.16-.13-.29-.26-.59-.38-.93-.12-.32-.24-.64-.34-.97l-.04-.14h-1.88c-.4 0-.77-.07-1.12-.22-.34-.15-.65-.36-.93-.63l-.02-.02c-.27-.28-.47-.59-.62-.93-.14-.35-.22-.71-.22-1.09v-3.74c0-.39.07-.76.21-1.11.14-.35.35-.66.64-.94.28-.28.6-.49.94-.64.35-.14.72-.21 1.11-.21h2.2c.02-.06.04-.11.07-.17.12-.31.25-.62.4-.93.15-.33.3-.63.45-.91.02-.03.04-.07.06-.11l-1.33-1.33c-.28-.28-.49-.59-.64-.94-.15-.36-.23-.73-.23-1.12 0-.39.08-.76.23-1.11.15-.35.36-.67.64-.94l2.61-2.62.01-.01c.28-.28.59-.49.93-.63.35-.15.73-.23 1.12-.23.4 0 .77.08 1.13.23.34.15.65.37.92.65l1.56 1.54c.05-.02.09-.04.14-.07.29-.13.6-.26.92-.39.31-.12.63-.23.97-.33.04-.01.09-.03.13-.04v-1.88c0-.4.07-.77.22-1.12.14-.35.35-.65.63-.93l.02-.02c.28-.27.59-.48.93-.62.35-.15.72-.22 1.09-.22h3.74c.39 0 .76.07 1.11.21.35.15.67.36.95.63.28.28.49.6.64.94.14.35.21.72.21 1.11v2.2c.06.02.11.04.17.07.31.12.62.25.94.39.32.15.63.3.91.45l.11.06L61 16.75c.28-.28.59-.49.94-.64.36-.15.73-.23 1.12-.23.4.06.78.13 1.13.28zm-11.87 6.96c.58 0 1.13.06 1.68.16.54.11 1.07.27 1.6.5h.01c.5.22.98.48 1.43.78a8.187 8.187 0 0 1 2.26 2.27c.3.45.56.93.78 1.43.01.03.03.06.03.09.21.5.36 1.01.46 1.52.11.55.16 1.11.16 1.68 0 .58-.06 1.14-.16 1.68-.11.54-.27 1.07-.5 1.6v.01a8.702 8.702 0 0 1-1.8 2.68c-.38.38-.79.72-1.24 1.02-.45.3-.93.56-1.43.78-.03.01-.06.03-.09.04-.5.21-1.01.36-1.52.46-.55.11-1.11.17-1.68.17-.58 0-1.13-.06-1.68-.17-.54-.11-1.07-.27-1.6-.5h-.01c-.5-.21-.98-.48-1.43-.78-.45-.3-.86-.64-1.25-1.02-.38-.38-.72-.8-1.01-1.25-.3-.45-.56-.93-.78-1.43-.01-.03-.03-.06-.04-.09a7.79 7.79 0 0 1-.46-1.52c-.11-.55-.17-1.11-.17-1.68 0-.58.05-1.13.17-1.68.11-.54.27-1.07.5-1.6v-.01a8.702 8.702 0 0 1 1.8-2.68c.38-.38.8-.72 1.25-1.02.45-.3.93-.56 1.43-.78.03-.01.06-.03.09-.04.5-.21 1.01-.36 1.52-.46.55-.11 1.11-.16 1.68-.16zm1.25 2.34c-.4-.08-.82-.12-1.25-.12s-.85.04-1.25.12c-.39.08-.75.19-1.1.33l-.06.03c-.39.17-.75.36-1.08.58-.33.22-.63.47-.91.75s-.53.58-.75.91c-.22.32-.41.69-.58 1.08a6.345 6.345 0 0 0-.47 2.42 6.13 6.13 0 0 0 .45 2.35l.03.06c.17.39.36.75.58 1.08.22.33.47.63.75.91s.58.53.91.75c.32.21.68.41 1.08.58.37.15.76.27 1.17.36.4.08.82.12 1.25.12s.85-.04 1.25-.12a6.387 6.387 0 0 0 1.17-.36c.39-.17.75-.37 1.08-.58.33-.22.63-.47.91-.75s.53-.58.75-.91c.22-.32.41-.68.58-1.08.15-.37.27-.75.36-1.17.08-.4.12-.82.12-1.25 0-.43-.04-.85-.12-1.25-.08-.39-.19-.75-.33-1.1l-.03-.06c-.17-.39-.36-.75-.58-1.08a5.95 5.95 0 0 0-.75-.91 6.127 6.127 0 0 0-1.99-1.33 5.86 5.86 0 0 0-1.19-.36zM15.41 3.54h91.77v61.73H15.41V3.54zm42.32 65.55h7.43c.7 0 1.27.57 1.27 1.27 0 .7-.57 1.27-1.27 1.27h-7.43c-.7 0-1.27-.57-1.27-1.27 0-.71.57-1.27 1.27-1.27z" style="fill-rule:evenodd;clip-rule:evenodd"/></svg>